<svg width="486" height="1089" viewBox="0 0 486 1089" fill="none" xmlns="http://www.w3.org/2000/svg">
<g opacity="0.2">
<circle cx="60.5" cy="60.5" r="60" stroke="url(#paint0_linear_162_1748)"/>
<circle cx="181.5" cy="60.5" r="60" stroke="url(#paint1_linear_162_1748)"/>
<circle cx="302.5" cy="60.5" r="60" stroke="url(#paint2_linear_162_1748)"/>
<circle cx="423.5" cy="60.5" r="60" stroke="url(#paint3_linear_162_1748)"/>
<circle cx="60.5" cy="181.5" r="60" stroke="url(#paint4_linear_162_1748)"/>
<circle cx="181.5" cy="181.5" r="60" stroke="url(#paint5_linear_162_1748)"/>
<circle cx="302.5" cy="181.5" r="60" stroke="url(#paint6_linear_162_1748)"/>
<circle cx="423.5" cy="181.5" r="60" stroke="url(#paint7_linear_162_1748)"/>
<circle cx="60.5" cy="302.5" r="60" stroke="url(#paint8_linear_162_1748)"/>
<circle cx="181.5" cy="302.5" r="60" stroke="url(#paint9_linear_162_1748)"/>
<circle cx="302.5" cy="302.5" r="60" stroke="url(#paint10_linear_162_1748)"/>
<circle cx="423.5" cy="302.5" r="60" stroke="url(#paint11_linear_162_1748)"/>
<circle cx="60.5" cy="423.5" r="60" stroke="url(#paint12_linear_162_1748)"/>
<circle cx="181.5" cy="423.5" r="60" stroke="url(#paint13_linear_162_1748)"/>
<circle cx="302.5" cy="423.5" r="60" stroke="url(#paint14_linear_162_1748)"/>
<circle cx="423.5" cy="423.5" r="60" stroke="url(#paint15_linear_162_1748)"/>
<circle cx="60.5" cy="544.5" r="60" stroke="url(#paint16_linear_162_1748)"/>
<circle cx="181.5" cy="544.5" r="60" stroke="url(#paint17_linear_162_1748)"/>
<circle cx="302.5" cy="544.5" r="60" stroke="url(#paint18_linear_162_1748)"/>
<circle cx="423.5" cy="544.5" r="60" stroke="url(#paint19_linear_162_1748)"/>
<circle cx="60.5" cy="665.5" r="60" stroke="url(#paint20_linear_162_1748)"/>
<circle cx="181.5" cy="665.5" r="60" stroke="url(#paint21_linear_162_1748)"/>
<circle cx="302.5" cy="665.5" r="60" stroke="url(#paint22_linear_162_1748)"/>
<circle cx="423.5" cy="665.5" r="60" stroke="url(#paint23_linear_162_1748)"/>
<circle cx="60.5" cy="786.5" r="60" stroke="url(#paint24_linear_162_1748)"/>
<circle cx="181.5" cy="786.5" r="60" stroke="url(#paint25_linear_162_1748)"/>
<circle cx="302.5" cy="786.5" r="60" stroke="url(#paint26_linear_162_1748)"/>
<circle cx="423.5" cy="786.5" r="60" stroke="url(#paint27_linear_162_1748)"/>
<circle cx="60.5" cy="907.5" r="60" stroke="url(#paint28_linear_162_1748)"/>
<circle cx="181.5" cy="907.5" r="60" stroke="url(#paint29_linear_162_1748)"/>
<circle cx="302.5" cy="907.5" r="60" stroke="url(#paint30_linear_162_1748)"/>
<circle cx="423.5" cy="907.5" r="60" stroke="url(#paint31_linear_162_1748)"/>
<circle cx="60.5" cy="1028.5" r="60" stroke="url(#paint32_linear_162_1748)"/>
<circle cx="181.5" cy="1028.5" r="60" stroke="url(#paint33_linear_162_1748)"/>
<circle cx="302.5" cy="1028.5" r="60" stroke="url(#paint34_linear_162_1748)"/>
<circle cx="423.5" cy="1028.5" r="60" stroke="url(#paint35_linear_162_1748)"/>
</g>
<defs>
<linearGradient id="paint0_linear_162_1748" x1="7.24883" y1="-6.24912" x2="123.19" y2="-1.29879" gradientUnits="userSpaceOnUse">
<stop/>
<stop offset="1" stop-color="#3F285E"/>
</linearGradient>
<linearGradient id="paint1_linear_162_1748" x1="128.249" y1="-6.24912" x2="244.19" y2="-1.29879" gradientUnits="userSpaceOnUse">
<stop/>
<stop offset="1" stop-color="#3F285E"/>
</linearGradient>
<linearGradient id="paint2_linear_162_1748" x1="249.249" y1="-6.24912" x2="365.19" y2="-1.29879" gradientUnits="userSpaceOnUse">
<stop/>
<stop offset="1" stop-color="#3F285E"/>
</linearGradient>
<linearGradient id="paint3_linear_162_1748" x1="370.249" y1="-6.24912" x2="486.19" y2="-1.29879" gradientUnits="userSpaceOnUse">
<stop/>
<stop offset="1" stop-color="#3F285E"/>
</linearGradient>
<linearGradient id="paint4_linear_162_1748" x1="7.24883" y1="114.751" x2="123.19" y2="119.701" gradientUnits="userSpaceOnUse">
<stop/>
<stop offset="1" stop-color="#3F285E"/>
</linearGradient>
<linearGradient id="paint5_linear_162_1748" x1="128.249" y1="114.751" x2="244.19" y2="119.701" gradientUnits="userSpaceOnUse">
<stop/>
<stop offset="1" stop-color="#3F285E"/>
</linearGradient>
<linearGradient id="paint6_linear_162_1748" x1="249.249" y1="114.751" x2="365.19" y2="119.701" gradientUnits="userSpaceOnUse">
<stop/>
<stop offset="1" stop-color="#3F285E"/>
</linearGradient>
<linearGradient id="paint7_linear_162_1748" x1="370.249" y1="114.751" x2="486.19" y2="119.701" gradientUnits="userSpaceOnUse">
<stop/>
<stop offset="1" stop-color="#3F285E"/>
</linearGradient>
<linearGradient id="paint8_linear_162_1748" x1="7.24883" y1="235.751" x2="123.19" y2="240.701" gradientUnits="userSpaceOnUse">
<stop/>
<stop offset="1" stop-color="#3F285E"/>
</linearGradient>
<linearGradient id="paint9_linear_162_1748" x1="128.249" y1="235.751" x2="244.19" y2="240.701" gradientUnits="userSpaceOnUse">
<stop/>
<stop offset="1" stop-color="#3F285E"/>
</linearGradient>
<linearGradient id="paint10_linear_162_1748" x1="249.249" y1="235.751" x2="365.19" y2="240.701" gradientUnits="userSpaceOnUse">
<stop/>
<stop offset="1" stop-color="#3F285E"/>
</linearGradient>
<linearGradient id="paint11_linear_162_1748" x1="370.249" y1="235.751" x2="486.19" y2="240.701" gradientUnits="userSpaceOnUse">
<stop/>
<stop offset="1" stop-color="#3F285E"/>
</linearGradient>
<linearGradient id="paint12_linear_162_1748" x1="7.24883" y1="356.751" x2="123.19" y2="361.701" gradientUnits="userSpaceOnUse">
<stop/>
<stop offset="1" stop-color="#3F285E"/>
</linearGradient>
<linearGradient id="paint13_linear_162_1748" x1="128.249" y1="356.751" x2="244.19" y2="361.701" gradientUnits="userSpaceOnUse">
<stop/>
<stop offset="1" stop-color="#3F285E"/>
</linearGradient>
<linearGradient id="paint14_linear_162_1748" x1="249.249" y1="356.751" x2="365.19" y2="361.701" gradientUnits="userSpaceOnUse">
<stop/>
<stop offset="1" stop-color="#3F285E"/>
</linearGradient>
<linearGradient id="paint15_linear_162_1748" x1="370.249" y1="356.751" x2="486.19" y2="361.701" gradientUnits="userSpaceOnUse">
<stop/>
<stop offset="1" stop-color="#3F285E"/>
</linearGradient>
<linearGradient id="paint16_linear_162_1748" x1="7.24883" y1="477.751" x2="123.19" y2="482.701" gradientUnits="userSpaceOnUse">
<stop/>
<stop offset="1" stop-color="#3F285E"/>
</linearGradient>
<linearGradient id="paint17_linear_162_1748" x1="128.249" y1="477.751" x2="244.19" y2="482.701" gradientUnits="userSpaceOnUse">
<stop/>
<stop offset="1" stop-color="#3F285E"/>
</linearGradient>
<linearGradient id="paint18_linear_162_1748" x1="249.249" y1="477.751" x2="365.19" y2="482.701" gradientUnits="userSpaceOnUse">
<stop/>
<stop offset="1" stop-color="#3F285E"/>
</linearGradient>
<linearGradient id="paint19_linear_162_1748" x1="370.249" y1="477.751" x2="486.19" y2="482.701" gradientUnits="userSpaceOnUse">
<stop/>
<stop offset="1" stop-color="#3F285E"/>
</linearGradient>
<linearGradient id="paint20_linear_162_1748" x1="7.24883" y1="598.751" x2="123.19" y2="603.701" gradientUnits="userSpaceOnUse">
<stop/>
<stop offset="1" stop-color="#3F285E"/>
</linearGradient>
<linearGradient id="paint21_linear_162_1748" x1="128.249" y1="598.751" x2="244.19" y2="603.701" gradientUnits="userSpaceOnUse">
<stop/>
<stop offset="1" stop-color="#3F285E"/>
</linearGradient>
<linearGradient id="paint22_linear_162_1748" x1="249.249" y1="598.751" x2="365.19" y2="603.701" gradientUnits="userSpaceOnUse">
<stop/>
<stop offset="1" stop-color="#3F285E"/>
</linearGradient>
<linearGradient id="paint23_linear_162_1748" x1="370.249" y1="598.751" x2="486.19" y2="603.701" gradientUnits="userSpaceOnUse">
<stop/>
<stop offset="1" stop-color="#3F285E"/>
</linearGradient>
<linearGradient id="paint24_linear_162_1748" x1="7.24883" y1="719.751" x2="123.19" y2="724.701" gradientUnits="userSpaceOnUse">
<stop/>
<stop offset="1" stop-color="#3F285E"/>
</linearGradient>
<linearGradient id="paint25_linear_162_1748" x1="128.249" y1="719.751" x2="244.19" y2="724.701" gradientUnits="userSpaceOnUse">
<stop/>
<stop offset="1" stop-color="#3F285E"/>
</linearGradient>
<linearGradient id="paint26_linear_162_1748" x1="249.249" y1="719.751" x2="365.19" y2="724.701" gradientUnits="userSpaceOnUse">
<stop/>
<stop offset="1" stop-color="#3F285E"/>
</linearGradient>
<linearGradient id="paint27_linear_162_1748" x1="370.249" y1="719.751" x2="486.19" y2="724.701" gradientUnits="userSpaceOnUse">
<stop/>
<stop offset="1" stop-color="#3F285E"/>
</linearGradient>
<linearGradient id="paint28_linear_162_1748" x1="7.24883" y1="840.751" x2="123.19" y2="845.701" gradientUnits="userSpaceOnUse">
<stop/>
<stop offset="1" stop-color="#3F285E"/>
</linearGradient>
<linearGradient id="paint29_linear_162_1748" x1="128.249" y1="840.751" x2="244.19" y2="845.701" gradientUnits="userSpaceOnUse">
<stop/>
<stop offset="1" stop-color="#3F285E"/>
</linearGradient>
<linearGradient id="paint30_linear_162_1748" x1="249.249" y1="840.751" x2="365.19" y2="845.701" gradientUnits="userSpaceOnUse">
<stop/>
<stop offset="1" stop-color="#3F285E"/>
</linearGradient>
<linearGradient id="paint31_linear_162_1748" x1="370.249" y1="840.751" x2="486.19" y2="845.701" gradientUnits="userSpaceOnUse">
<stop/>
<stop offset="1" stop-color="#3F285E"/>
</linearGradient>
<linearGradient id="paint32_linear_162_1748" x1="7.24883" y1="961.751" x2="123.19" y2="966.701" gradientUnits="userSpaceOnUse">
<stop/>
<stop offset="1" stop-color="#3F285E"/>
</linearGradient>
<linearGradient id="paint33_linear_162_1748" x1="128.249" y1="961.751" x2="244.19" y2="966.701" gradientUnits="userSpaceOnUse">
<stop/>
<stop offset="1" stop-color="#3F285E"/>
</linearGradient>
<linearGradient id="paint34_linear_162_1748" x1="249.249" y1="961.751" x2="365.19" y2="966.701" gradientUnits="userSpaceOnUse">
<stop/>
<stop offset="1" stop-color="#3F285E"/>
</linearGradient>
<linearGradient id="paint35_linear_162_1748" x1="370.249" y1="961.751" x2="486.19" y2="966.701" gradientUnits="userSpaceOnUse">
<stop/>
<stop offset="1" stop-color="#3F285E"/>
</linearGradient>
</defs>
</svg>
