<svg width="25" height="24" viewBox="0 0 25 24" fill="none" xmlns="http://www.w3.org/2000/svg">
<g id="vuesax/outline/tick-circle">
<g id="tick-circle">
<path id="Vector" d="M12.5 22.75C6.57 22.75 1.75 17.93 1.75 12C1.75 6.07 6.57 1.25 12.5 1.25C18.43 1.25 23.25 6.07 23.25 12C23.25 17.93 18.43 22.75 12.5 22.75ZM12.5 2.75C7.4 2.75 3.25 6.9 3.25 12C3.25 17.1 7.4 21.25 12.5 21.25C17.6 21.25 21.75 17.1 21.75 12C21.75 6.9 17.6 2.75 12.5 2.75Z" fill="url(#paint0_linear_262_214)"/>
<path id="Vector_2" d="M11.0795 15.5796C10.8795 15.5796 10.6895 15.4996 10.5495 15.3596L7.71945 12.5296C7.42945 12.2396 7.42945 11.7596 7.71945 11.4696C8.00945 11.1796 8.48945 11.1796 8.77945 11.4696L11.0795 13.7696L16.2195 8.62961C16.5095 8.33961 16.9895 8.33961 17.2795 8.62961C17.5695 8.91961 17.5695 9.39961 17.2795 9.68961L11.6095 15.3596C11.4695 15.4996 11.2795 15.5796 11.0795 15.5796Z" fill="url(#paint1_linear_262_214)"/>
</g>
</g>
<defs>
<linearGradient id="paint0_linear_262_214" x1="6.53548" y1="-5.66071" x2="28.0389" y2="-0.295595" gradientUnits="userSpaceOnUse">
<stop stop-color="#D63535"/>
<stop offset="0.473506" stop-color="#D256B2"/>
<stop offset="1" stop-color="#3D43DE"/>
</linearGradient>
<linearGradient id="paint1_linear_262_214" x1="9.72665" y1="6.10827" x2="19.1989" y2="9.40391" gradientUnits="userSpaceOnUse">
<stop stop-color="#D63535"/>
<stop offset="0.473506" stop-color="#D256B2"/>
<stop offset="1" stop-color="#3D43DE"/>
</linearGradient>
</defs>
</svg>
